<svg width="18" height="17" viewBox="0 0 18 17" fill="none" xmlns="http://www.w3.org/2000/svg">
<path fill-rule="evenodd" clip-rule="evenodd" d="M14 1.83333H3.99999C3.07952 1.83333 2.33332 2.57952 2.33332 3.5V13.5C2.33332 14.4205 3.07952 15.1667 3.99999 15.1667H14C14.9205 15.1667 15.6667 14.4205 15.6667 13.5V3.5C15.6667 2.57952 14.9205 1.83333 14 1.83333ZM3.99999 0.166664C2.15904 0.166664 0.666656 1.65905 0.666656 3.5V13.5C0.666656 15.3409 2.15904 16.8333 3.99999 16.8333H14C15.8409 16.8333 17.3333 15.3409 17.3333 13.5V3.5C17.3333 1.65905 15.8409 0.166664 14 0.166664H3.99999Z" fill="#C4C7C7"/>
</svg>
