<svg width="18" height="18" viewBox="0 0 18 18" fill="none" xmlns="http://www.w3.org/2000/svg">
<path fill-rule="evenodd" clip-rule="evenodd" d="M12.8481 14.0266C11.565 15.053 9.93751 15.6667 8.16666 15.6667C4.02453 15.6667 0.666664 12.3088 0.666664 8.16669C0.666664 4.02455 4.02453 0.666687 8.16666 0.666687C12.3088 0.666687 15.6667 4.02455 15.6667 8.16669C15.6667 9.93753 15.0529 11.565 14.0266 12.8481L17.0893 15.9108L15.9108 17.0893L12.8481 14.0266ZM14 8.16669C14 11.3883 11.3883 14 8.16666 14C4.945 14 2.33333 11.3883 2.33333 8.16669C2.33333 4.94503 4.945 2.33335 8.16666 2.33335C11.3883 2.33335 14 4.94503 14 8.16669Z" fill="#5C5F60"/>
</svg>
