<svg width="21" height="19" viewBox="0 0 21 19" fill="none" xmlns="http://www.w3.org/2000/svg">
<path fill-rule="evenodd" clip-rule="evenodd" d="M10.2426 1.75736C12.5858 -0.585787 16.3848 -0.585787 18.7279 1.75736C21.0711 4.10051 21.0711 7.89949 18.7279 10.2426L10.2426 18.728L1.75736 10.2427C-0.585787 7.89953 -0.585786 4.10054 1.75736 1.75739C4.1005 -0.585744 7.89947 -0.58576 10.2426 1.75736ZM17.3137 3.17158C15.7516 1.60948 13.2189 1.60947 11.6568 3.17157L10.2426 4.58579L8.82843 3.17161C7.26633 1.60951 4.73367 1.60951 3.17157 3.17161C1.60948 4.7337 1.60948 7.26636 3.17157 8.82846L10.2426 15.8995L17.3137 8.82843C18.8758 7.26633 18.8758 4.73367 17.3137 3.17158Z" fill="#2D3132"/>
</svg>
