<svg width="20" height="19" viewBox="0 0 20 19" fill="none" xmlns="http://www.w3.org/2000/svg">
<path d="M15 6C15 6.55228 14.5523 7 14 7H6C5.44772 7 5 6.55228 5 6C5 5.44772 5.44772 5 6 5H14C14.5523 5 15 5.44772 15 6Z" fill="#2D3132"/>
<path d="M5 10C5 10.5523 5.44772 11 6 11H14C14.5523 11 15 10.5523 15 10C15 9.44772 14.5523 9 14 9H6C5.44772 9 5 9.44772 5 10Z" fill="#2D3132"/>
<path fill-rule="evenodd" clip-rule="evenodd" d="M4 0C1.79086 0 0 1.79086 0 4V16C0 17.8811 1.93624 19.1395 3.65525 18.3754L8.2243 16.3448C8.73574 16.1174 9.28918 16 9.84886 16H16C18.2091 16 20 14.2091 20 12V4C20 1.79086 18.2091 0 16 0H4ZM16 2H4C2.89543 2 2 2.89543 2 4V16C2 16.4338 2.44653 16.724 2.84297 16.5478L7.41203 14.5171C8.17918 14.1762 9.00935 14 9.84886 14H16C17.1046 14 18 13.1046 18 12V4C18 2.89543 17.1046 2 16 2Z" fill="#2D3132"/>
</svg>
